<?xml version="1.0" encoding="utf-8"?>
<!DOCTYPE svg PUBLIC "-//W3C//DTD SVG 1.1//EN" "http://www.w3.org/Graphics/SVG/1.1/DTD/svg11.dtd">
<svg xmlns="http://www.w3.org/2000/svg" xmlns:xlink="http://www.w3.org/1999/xlink" version="1.1" baseProfile="full" width="250.25" height="101" viewBox="0 0 250.25 101.00" enable-background="new 0 0 250.25 101.00" xml:space="preserve">
	<rect x="0" y="0.25" fill="#9B242D" fill-opacity="1" stroke-width="0.2" stroke-linejoin="round" width="100" height="100"/>
	<g>
		<path fill="#FFFFFF" fill-opacity="1" stroke-width="0.2" stroke-linejoin="round" d="M 30.6874,87.8744L 25.3541,87.8744L 25.3541,78.541L 15.6874,78.541L 15.6874,87.8744L 10.3541,87.8744L 10.3541,64.541L 15.6874,64.541L 15.6874,73.8744L 25.3541,73.8744L 25.3541,64.541L 30.6874,64.541L 30.6874,87.8744 Z "/>
		<path fill="#FFFFFF" fill-opacity="1" stroke-width="0.2" stroke-linejoin="round" d="M 36.0208,87.8744L 36.0208,64.541L 44.552,64.541C 47.1666,64.541 49.1761,65.0168 50.5807,65.9681C 51.9852,66.9195 52.6874,68.2598 52.6874,69.989C 52.6874,71.2425 52.2603,72.3388 51.4062,73.278C 50.552,74.2173 49.46,74.8709 48.1301,75.239L 48.1301,75.3067C 49.8176,75.5115 51.1657,76.1253 52.1744,77.1479C 53.1831,78.1704 53.6874,79.416 53.6874,80.8848C 53.6874,83.0307 52.9166,84.732 51.3749,85.989C 49.8333,87.2459 47.7274,87.8744 45.0572,87.8744L 36.0208,87.8744 Z M 41.3541,68.541L 41.3541,73.8744L 43.6093,73.8744C 44.6683,73.8744 45.5017,73.6209 46.1093,73.114C 46.7169,72.607 47.0208,71.9091 47.0208,71.0202C 47.0208,69.3675 45.7725,68.541 43.276,68.541L 41.3541,68.541 Z M 41.3541,77.8744L 41.3541,83.8744L 44.1718,83.8744C 45.3732,83.8744 46.315,83.5992 46.9973,83.0489C 47.6796,82.4985 48.0208,81.7477 48.0208,80.7963C 48.0208,79.8866 47.6857,79.1721 47.0156,78.653C 46.3454,78.1339 45.4079,77.8744 44.2031,77.8744L 41.3541,77.8744 Z "/>
		<path fill="#FFFFFF" fill-opacity="1" stroke-width="0.2" stroke-linejoin="round" d="M 76.3541,77.7285C 76.3541,84.7147 73.0833,88.2077 66.5416,88.2077C 60.1944,88.2077 57.0208,84.7963 57.0208,77.9734L 57.0208,64.541L 62.3541,64.541L 62.3541,77.9369C 62.3541,81.673 63.8124,83.541 66.7291,83.541C 69.5902,83.541 71.0208,81.7373 71.0208,78.1296L 71.0208,64.541L 76.3541,64.541L 76.3541,77.7285 Z "/>
	</g>
	<rect x="99.75" y="0.500031" fill="#FFFFFF" fill-opacity="1" stroke-linejoin="round" stroke="#9B242D" stroke-opacity="1" width="150" height="100"/>
	<g>
		<path fill="#9B242D" fill-opacity="1" stroke-linejoin="round" d="M 117.65,78.25L 117.65,89.05L 114.45,89.05L 114.45,61.05L 122.175,61.05C 125.183,61.05 127.515,61.7698 129.169,63.2094C 130.823,64.649 131.65,66.6792 131.65,69.3C 131.65,71.925 130.725,74.0729 128.875,75.7437C 127.025,77.4146 124.527,78.25 121.381,78.25L 117.65,78.25 Z M 117.65,63.85L 117.65,75.45L 121.081,75.45C 123.348,75.45 125.076,74.9271 126.266,73.8813C 127.455,72.8354 128.05,71.3583 128.05,69.45C 128.05,65.7167 125.865,63.85 121.494,63.85L 117.65,63.85 Z "/>
		<path fill="#9B242D" fill-opacity="1" stroke-linejoin="round" d="M 149.85,89.05L 146.65,89.05L 146.65,85.75L 146.569,85.75C 145.156,88.2167 143.073,89.45 140.319,89.45C 138.294,89.45 136.709,88.9209 135.566,87.8625C 134.422,86.8042 133.85,85.3979 133.85,83.6438C 133.85,79.8896 136.085,77.7063 140.556,77.0938L 146.65,76.25C 146.65,73.05 145.256,71.45 142.469,71.45C 140.023,71.45 137.817,72.25 135.85,73.85L 135.85,70.5438C 137.837,69.2813 140.127,68.65 142.719,68.65C 147.473,68.65 149.85,71.1292 149.85,76.0875L 149.85,89.05 Z M 146.65,78.65L 141.681,79.325C 140.152,79.5334 138.998,79.9052 138.219,80.4406C 137.44,80.976 137.05,81.9229 137.05,83.2813C 137.05,84.2729 137.409,85.0823 138.128,85.7094C 138.847,86.3365 139.802,86.65 140.994,86.65C 142.631,86.65 143.983,86.0854 145.05,84.9563C 146.117,83.8271 146.65,82.3979 146.65,80.6688L 146.65,78.65 Z "/>
		<path fill="#9B242D" fill-opacity="1" stroke-linejoin="round" d="M 166.25,72.25C 165.692,71.7167 164.887,71.45 163.837,71.45C 162.475,71.45 161.336,72.1021 160.422,73.4063C 159.507,74.7104 159.05,76.4875 159.05,78.7375L 159.05,89.05L 155.85,89.05L 155.85,69.05L 159.05,69.05L 159.05,72.9688L 159.125,72.9688C 159.579,71.6104 160.274,70.5511 161.209,69.7906C 162.145,69.0302 163.19,68.65 164.344,68.65C 165.173,68.65 165.808,68.7417 166.25,68.925L 166.25,72.25 Z "/>
		<path fill="#9B242D" fill-opacity="1" stroke-linejoin="round" d="M 180.45,88.7813C 179.679,89.2271 178.665,89.45 177.406,89.45C 173.835,89.45 172.05,87.5083 172.05,83.625L 172.05,71.85L 168.45,71.85L 168.45,69.05L 172.05,69.05L 172.05,64.1L 175.25,63.05L 175.25,69.05L 180.45,69.05L 180.45,71.85L 175.25,71.85L 175.25,82.9688C 175.25,84.2938 175.485,85.2386 175.956,85.8031C 176.427,86.3677 177.206,86.65 178.294,86.65C 179.127,86.65 179.846,86.3833 180.45,85.85L 180.45,88.7813 Z "/>
		<path fill="#9B242D" fill-opacity="1" stroke-linejoin="round" d="M 201.25,89.05L 198.05,89.05L 198.05,77.7563C 198.05,73.5521 196.469,71.45 193.306,71.45C 191.673,71.45 190.322,72.0458 189.253,73.2375C 188.184,74.4292 187.65,75.9354 187.65,77.7563L 187.65,89.05L 184.45,89.05L 184.45,69.05L 187.65,69.05L 187.65,72.5438L 187.731,72.5438C 189.265,69.9479 191.483,68.65 194.387,68.65C 196.608,68.65 198.307,69.3542 199.484,70.7625C 200.661,72.1708 201.25,74.2042 201.25,76.8625L 201.25,89.05 Z "/>
		<path fill="#9B242D" fill-opacity="1" stroke-linejoin="round" d="M 223.25,79.85L 209.25,79.85C 209.304,82.0208 209.906,83.6969 211.056,84.8781C 212.206,86.0594 213.79,86.65 215.806,86.65C 218.073,86.65 220.154,85.9834 222.05,84.65L 222.05,87.5813C 220.3,88.8271 217.983,89.45 215.1,89.45C 212.283,89.45 210.071,88.5479 208.462,86.7437C 206.854,84.9396 206.05,82.4 206.05,79.125C 206.05,76.0334 206.92,73.5146 208.659,71.5688C 210.399,69.6229 212.56,68.65 215.144,68.65C 217.723,68.65 219.719,69.4906 221.131,71.1719C 222.544,72.8531 223.25,75.1896 223.25,78.1812L 223.25,79.85 Z M 220.05,77.05C 220.037,75.2834 219.594,73.9084 218.719,72.925C 217.844,71.9417 216.627,71.45 215.069,71.45C 213.565,71.45 212.287,71.9667 211.237,73C 210.187,74.0334 209.54,75.3833 209.294,77.05L 220.05,77.05 Z "/>
		<path fill="#9B242D" fill-opacity="1" stroke-linejoin="round" d="M 238.45,72.25C 237.892,71.7167 237.087,71.45 236.037,71.45C 234.675,71.45 233.536,72.1021 232.622,73.4063C 231.707,74.7104 231.25,76.4875 231.25,78.7375L 231.25,89.05L 228.05,89.05L 228.05,69.05L 231.25,69.05L 231.25,72.9688L 231.325,72.9688C 231.779,71.6104 232.474,70.5511 233.409,69.7906C 234.345,69.0302 235.39,68.65 236.544,68.65C 237.373,68.65 238.008,68.7417 238.45,68.925L 238.45,72.25 Z "/>
	</g>
</svg>
