<?xml version="1.0" encoding="utf-8"?>
<!DOCTYPE svg PUBLIC "-//W3C//DTD SVG 1.1//EN" "http://www.w3.org/Graphics/SVG/1.1/DTD/svg11.dtd">
<svg xmlns="http://www.w3.org/2000/svg" xmlns:xlink="http://www.w3.org/1999/xlink" version="1.1" baseProfile="full" width="442.5" height="181.5" viewBox="0 0 442.50 181.50" enable-background="new 0 0 442.50 181.50" xml:space="preserve">
	<rect x="0" y="0" fill="#9B242D" fill-opacity="1" stroke-width="0.2" stroke-linejoin="round" width="442.5" height="181.5"/>
	<g>
		<path fill="#FFFFFF" fill-opacity="1" stroke-linejoin="round" d="M 188.91,56.51L 185.977,56.51L 185.977,65.75L 184.803,65.75L 184.803,56.51L 181.87,56.51L 181.87,55.4833L 188.91,55.4833L 188.91,56.51 Z "/>
		<path fill="#FFFFFF" fill-opacity="1" stroke-linejoin="round" d="M 194.777,62.3767L 189.643,62.3767C 189.663,63.1727 189.884,63.7872 190.306,64.2203C 190.727,64.6535 191.308,64.87 192.047,64.87C 192.879,64.87 193.642,64.6256 194.337,64.1367L 194.337,65.2115C 193.695,65.6683 192.846,65.8967 191.788,65.8967C 190.756,65.8967 189.944,65.5659 189.355,64.9044C 188.765,64.2429 188.47,63.3117 188.47,62.1108C 188.47,60.9772 188.789,60.0537 189.427,59.3402C 190.065,58.6267 190.857,58.27 191.804,58.27C 192.75,58.27 193.482,58.5782 194,59.1947C 194.518,59.8112 194.777,60.6679 194.777,61.7648L 194.777,62.3767 Z M 193.603,61.35C 193.599,60.7022 193.436,60.1981 193.115,59.8375C 192.794,59.477 192.348,59.2967 191.777,59.2967C 191.225,59.2967 190.757,59.4861 190.372,59.865C 189.987,60.2439 189.75,60.7389 189.659,61.35L 193.603,61.35 Z "/>
		<path fill="#FFFFFF" fill-opacity="1" stroke-linejoin="round" d="M 201.523,65.3925C 200.967,65.7286 200.308,65.8967 199.546,65.8967C 198.513,65.8967 197.68,65.5587 197.047,64.8826C 196.413,64.2066 196.097,63.3308 196.097,62.2552C 196.097,61.0544 196.437,60.09 197.119,59.362C 197.8,58.634 198.709,58.27 199.846,58.27C 200.48,58.27 201.039,58.393 201.523,58.639L 201.523,59.8834C 200.987,59.4922 200.413,59.2967 199.8,59.2967C 199.061,59.2967 198.454,59.5591 197.98,60.0839C 197.507,60.6087 197.27,61.2988 197.27,62.1544C 197.27,62.9947 197.493,63.6573 197.94,64.1424C 198.387,64.6275 198.986,64.87 199.736,64.87C 200.37,64.87 200.966,64.6745 201.523,64.2833L 201.523,65.3925 Z "/>
		<path fill="#FFFFFF" fill-opacity="1" stroke-linejoin="round" d="M 209.443,65.75L 208.27,65.75L 208.27,61.5654C 208.27,60.0529 207.69,59.2967 206.531,59.2967C 205.947,59.2967 205.456,59.5152 205.056,59.9521C 204.656,60.389 204.457,60.9505 204.457,61.6365L 204.457,65.75L 203.283,65.75L 203.283,54.8967L 204.457,54.8967L 204.457,59.6977L 204.487,59.6977C 205.058,58.7459 205.871,58.27 206.927,58.27C 208.605,58.27 209.443,59.2623 209.443,61.2469L 209.443,65.75 Z "/>
		<path fill="#FFFFFF" fill-opacity="1" stroke-linejoin="round" d="M 221.323,65.75L 215.75,65.75L 215.75,55.4833L 221.03,55.4833L 221.03,56.51L 216.923,56.51L 216.923,60.03L 220.737,60.03L 220.737,61.0567L 216.923,61.0567L 216.923,64.7234L 221.323,64.7234L 221.323,65.75 Z "/>
		<path fill="#FFFFFF" fill-opacity="1" stroke-linejoin="round" d="M 229.39,65.75L 228.217,65.75L 228.217,64.4392L 228.189,64.4392C 227.645,65.4109 226.807,65.8967 225.673,65.8967C 224.753,65.8967 224.018,65.5705 223.468,64.9181C 222.918,64.2658 222.643,63.3781 222.643,62.2552C 222.643,61.0498 222.948,60.0843 223.558,59.3586C 224.167,58.6329 224.979,58.27 225.994,58.27C 226.999,58.27 227.73,58.6795 228.187,59.4983L 228.217,59.4983L 228.217,54.8967L 229.39,54.8967L 229.39,65.75 Z M 228.217,62.4271L 228.217,61.3683C 228.217,60.7908 228.02,60.3012 227.627,59.8994C 227.233,59.4976 226.735,59.2967 226.131,59.2967C 225.413,59.2967 224.848,59.5534 224.435,60.0667C 224.023,60.58 223.817,61.2897 223.817,62.1956C 223.817,63.0222 224.015,63.6745 224.41,64.1527C 224.806,64.6309 225.337,64.87 226.003,64.87C 226.66,64.87 227.193,64.6389 227.603,64.1768C 228.012,63.7146 228.217,63.1314 228.217,62.4271 Z "/>
		<path fill="#FFFFFF" fill-opacity="1" stroke-linejoin="round" d="M 237.75,65.75L 236.577,65.75L 236.577,64.5263L 236.547,64.5263C 236.053,65.4399 235.288,65.8967 234.251,65.8967C 232.477,65.8967 231.59,64.8593 231.59,62.7846L 231.59,58.4167L 232.763,58.4167L 232.763,62.5715C 232.763,64.1038 233.366,64.87 234.572,64.87C 235.155,64.87 235.635,64.6607 236.012,64.2421C 236.388,63.8235 236.577,63.2765 236.577,62.6013L 236.577,58.4167L 237.75,58.4167L 237.75,65.75 Z "/>
		<path fill="#FFFFFF" fill-opacity="1" stroke-linejoin="round" d="M 245.083,65.3925C 244.527,65.7286 243.868,65.8967 243.106,65.8967C 242.073,65.8967 241.24,65.5587 240.607,64.8826C 239.973,64.2066 239.657,63.3308 239.657,62.2552C 239.657,61.0544 239.997,60.09 240.679,59.362C 241.36,58.634 242.269,58.27 243.406,58.27C 244.04,58.27 244.599,58.393 245.083,58.639L 245.083,59.8834C 244.547,59.4922 243.973,59.2967 243.36,59.2967C 242.621,59.2967 242.014,59.5591 241.54,60.0839C 241.067,60.6087 240.83,61.2988 240.83,62.1544C 240.83,62.9947 241.053,63.6573 241.5,64.1424C 241.947,64.6275 242.546,64.87 243.296,64.87C 243.93,64.87 244.526,64.6745 245.083,64.2833L 245.083,65.3925 Z "/>
		<path fill="#FFFFFF" fill-opacity="1" stroke-linejoin="round" d="M 252.123,65.75L 250.95,65.75L 250.95,64.54L 250.92,64.54C 250.402,65.4445 249.638,65.8967 248.629,65.8967C 247.886,65.8967 247.305,65.7027 246.886,65.3146C 246.466,64.9265 246.257,64.4109 246.257,63.7677C 246.257,62.3912 247.076,61.5906 248.716,61.3661L 250.95,61.0567C 250.95,59.8834 250.439,59.2967 249.417,59.2967C 248.52,59.2967 247.711,59.59 246.99,60.1767L 246.99,58.9644C 247.719,58.5015 248.558,58.27 249.509,58.27C 251.252,58.27 252.123,59.179 252.123,60.9971L 252.123,65.75 Z M 250.95,61.9367L 249.128,62.1842C 248.567,62.2606 248.144,62.3969 247.859,62.5932C 247.573,62.7896 247.43,63.1367 247.43,63.6348C 247.43,63.9984 247.562,64.2952 247.825,64.5251C 248.089,64.7551 248.439,64.87 248.876,64.87C 249.477,64.87 249.972,64.663 250.363,64.249C 250.755,63.8349 250.95,63.3109 250.95,62.6769L 250.95,61.9367 Z "/>
		<path fill="#FFFFFF" fill-opacity="1" stroke-linejoin="round" d="M 257.843,65.6515C 257.561,65.8149 257.189,65.8967 256.727,65.8967C 255.418,65.8967 254.763,65.1847 254.763,63.7608L 254.763,59.4434L 253.443,59.4434L 253.443,58.4167L 254.763,58.4167L 254.763,56.6017L 255.937,56.2167L 255.937,58.4167L 257.843,58.4167L 257.843,59.4434L 255.937,59.4434L 255.937,63.5202C 255.937,64.0061 256.023,64.3525 256.196,64.5595C 256.368,64.7665 256.654,64.87 257.053,64.87C 257.358,64.87 257.622,64.7722 257.843,64.5767L 257.843,65.6515 Z "/>
		<path fill="#FFFFFF" fill-opacity="1" stroke-linejoin="round" d="M 259.89,56.51C 259.688,56.51 259.517,56.4413 259.375,56.3038C 259.234,56.1663 259.163,55.9921 259.163,55.7813C 259.163,55.5689 259.234,55.3928 259.375,55.253C 259.517,55.1132 259.688,55.0434 259.89,55.0434C 260.096,55.0434 260.271,55.1132 260.415,55.253C 260.558,55.3928 260.63,55.5689 260.63,55.7813C 260.63,55.9829 260.558,56.1548 260.415,56.2969C 260.271,56.439 260.096,56.51 259.89,56.51 Z M 260.483,65.75L 259.31,65.75L 259.31,58.4167L 260.483,58.4167L 260.483,65.75 Z "/>
		<path fill="#FFFFFF" fill-opacity="1" stroke-linejoin="round" d="M 265.94,65.8967C 264.861,65.8967 264,65.5564 263.356,64.8757C 262.712,64.1951 262.39,63.2926 262.39,62.1681C 262.39,60.9444 262.725,59.9888 263.395,59.3013C 264.065,58.6138 264.97,58.27 266.112,58.27C 267.199,58.27 268.049,58.6042 268.66,59.2726C 269.271,59.941 269.577,60.8688 269.577,62.0558C 269.577,63.217 269.247,64.1474 268.589,64.8471C 267.931,65.5468 267.047,65.8967 265.94,65.8967 Z M 266.027,59.2967C 265.268,59.2967 264.667,59.5476 264.226,60.0495C 263.784,60.5514 263.563,61.2431 263.563,62.1246C 263.563,62.974 263.787,63.644 264.234,64.1344C 264.681,64.6248 265.278,64.87 266.027,64.87C 266.791,64.87 267.378,64.6298 267.788,64.1493C 268.198,63.6688 268.403,62.9847 268.403,62.0971C 268.403,61.2003 268.198,60.5094 267.788,60.0243C 267.378,59.5392 266.791,59.2967 266.027,59.2967 Z "/>
		<path fill="#FFFFFF" fill-opacity="1" stroke-linejoin="round" d="M 277.643,65.75L 276.47,65.75L 276.47,61.609C 276.47,60.0675 275.89,59.2967 274.731,59.2967C 274.132,59.2967 273.636,59.5152 273.245,59.9521C 272.853,60.389 272.657,60.9413 272.657,61.609L 272.657,65.75L 271.483,65.75L 271.483,58.4167L 272.657,58.4167L 272.657,59.6977L 272.687,59.6977C 273.249,58.7459 274.062,58.27 275.127,58.27C 275.941,58.27 276.564,58.5282 276.996,59.0446C 277.428,59.561 277.643,60.3065 277.643,61.2813L 277.643,65.75 Z "/>
		<path fill="#FFFFFF" fill-opacity="1" stroke-linejoin="round" d="M 280.203,65.8967C 279.982,65.8967 279.793,65.8176 279.637,65.6595C 279.481,65.5014 279.403,65.3131 279.403,65.0946C 279.403,64.8746 279.481,64.6844 279.637,64.524C 279.793,64.3636 279.982,64.2833 280.203,64.2833C 280.429,64.2833 280.621,64.3636 280.78,64.524C 280.938,64.6844 281.017,64.8746 281.017,65.0946C 281.017,65.3131 280.938,65.5014 280.78,65.6595C 280.621,65.8176 280.429,65.8967 280.203,65.8967 Z "/>
		<path fill="#FFFFFF" fill-opacity="1" stroke-linejoin="round" d="M 287.177,65.75L 287.177,55.4833L 290.866,55.4833C 294.567,55.4833 296.417,57.1517 296.417,60.4883C 296.417,62.0864 295.912,63.3629 294.902,64.3177C 293.892,65.2726 292.547,65.75 290.866,65.75L 287.177,65.75 Z M 289.523,57.39L 289.523,63.8433L 290.678,63.8433C 291.691,63.8433 292.485,63.5451 293.061,62.9484C 293.636,62.3519 293.923,61.5402 293.923,60.5136C 293.923,59.5434 293.638,58.7803 293.067,58.2242C 292.497,57.6681 291.696,57.39 290.665,57.39L 289.523,57.39 Z "/>
		<path fill="#FFFFFF" fill-opacity="1" stroke-linejoin="round" d="M 301.367,65.8967C 300.148,65.8967 299.189,65.5571 298.491,64.878C 297.793,64.1989 297.443,63.2765 297.443,62.1108C 297.443,60.9085 297.805,59.9678 298.53,59.2887C 299.254,58.6096 300.233,58.27 301.468,58.27C 302.682,58.27 303.635,58.6096 304.326,59.2887C 305.018,59.9678 305.363,60.8665 305.363,61.9848C 305.363,63.1917 305.007,64.1455 304.294,64.846C 303.582,65.5464 302.606,65.8967 301.367,65.8967 Z M 301.429,60.03C 300.909,60.03 300.506,60.2088 300.22,60.5663C 299.933,60.9238 299.79,61.4295 299.79,62.0834C 299.79,63.4522 300.341,64.1367 301.442,64.1367C 302.492,64.1367 303.017,63.4339 303.017,62.0284C 303.017,60.6961 302.487,60.03 301.429,60.03 Z "/>
		<path fill="#FFFFFF" fill-opacity="1" stroke-linejoin="round" d="M 313.87,65.75L 311.67,65.75L 311.67,61.7167C 311.67,60.5922 311.252,60.03 310.417,60.03C 310.013,60.03 309.681,60.179 309.421,60.4769C 309.16,60.7748 309.03,61.1529 309.03,61.6113L 309.03,65.75L 306.83,65.75L 306.83,58.4167L 309.03,58.4167L 309.03,59.6358L 309.06,59.6358C 309.601,58.7253 310.389,58.27 311.425,58.27C 313.055,58.27 313.87,59.273 313.87,61.279L 313.87,65.75 Z "/>
		<path fill="#FFFFFF" fill-opacity="1" stroke-linejoin="round" d="M 322.083,62.67L 317.39,62.67C 317.466,63.7456 318.132,64.2833 319.386,64.2833C 320.187,64.2833 320.89,64.0878 321.497,63.6967L 321.497,65.3467C 320.826,65.7133 319.955,65.8967 318.884,65.8967C 317.714,65.8967 316.806,65.5713 316.159,64.9204C 315.513,64.2696 315.19,63.3621 315.19,62.1979C 315.19,60.9895 315.537,60.0327 316.23,59.3276C 316.924,58.6226 317.777,58.27 318.788,58.27C 319.838,58.27 320.649,58.5813 321.223,59.2039C 321.797,59.8264 322.083,60.6709 322.083,61.7373L 322.083,62.67 Z M 320.03,61.35C 320.03,60.3722 319.612,59.8834 318.777,59.8834C 318.421,59.8834 318.112,60.0235 317.852,60.3039C 317.591,60.5842 317.433,60.9329 317.376,61.35L 320.03,61.35 Z "/>
		<path fill="#FFFFFF" fill-opacity="1" stroke-linejoin="round" d="M 332.35,60.399C 332.081,60.2508 331.767,60.1767 331.408,60.1767C 330.922,60.1767 330.542,60.3589 330.268,60.7232C 329.994,61.0876 329.857,61.5838 329.857,62.2117L 329.857,65.75L 327.657,65.75L 327.657,58.4167L 329.857,58.4167L 329.857,59.7183L 329.884,59.7183C 330.239,58.7528 330.876,58.27 331.798,58.27C 332.033,58.27 332.217,58.2983 332.35,58.3548L 332.35,60.399 Z "/>
		<path fill="#FFFFFF" fill-opacity="1" stroke-linejoin="round" d="M 334.623,57.2433C 334.258,57.2433 333.959,57.1292 333.726,56.9007C 333.493,56.6723 333.377,56.3916 333.377,56.0586C 333.377,55.7179 333.493,55.439 333.726,55.2221C 333.959,55.0052 334.258,54.8967 334.623,54.8967C 334.993,54.8967 335.293,55.0052 335.524,55.2221C 335.755,55.439 335.87,55.7179 335.87,56.0586C 335.87,56.4054 335.755,56.6895 335.524,56.9111C 335.293,57.1326 334.993,57.2433 334.623,57.2433 Z M 335.723,65.75L 333.523,65.75L 333.523,58.4167L 335.723,58.4167L 335.723,65.75 Z "/>
		<path fill="#FFFFFF" fill-opacity="1" stroke-linejoin="round" d="M 344.67,64.9571C 344.67,66.3275 344.288,67.3889 343.523,68.1414C 342.758,68.8938 341.651,69.27 340.201,69.27C 339.243,69.27 338.484,69.1371 337.923,68.8713L 337.923,67.07C 338.655,67.4611 339.393,67.6567 340.137,67.6567C 340.878,67.6567 341.452,67.4417 341.859,67.0116C 342.266,66.5815 342.47,65.9967 342.47,65.2573L 342.47,64.6386L 342.443,64.6386C 341.934,65.4773 341.184,65.8967 340.192,65.8967C 339.272,65.8967 338.542,65.5701 338.001,64.917C 337.46,64.2639 337.19,63.3881 337.19,62.2896C 337.19,61.0582 337.491,60.0804 338.092,59.3563C 338.693,58.6321 339.485,58.27 340.467,58.27C 341.346,58.27 342.003,58.6229 342.44,59.3288L 342.47,59.3288L 342.47,58.4167L 344.67,58.4167L 344.67,64.9571 Z M 342.498,62.2231L 342.498,61.6594C 342.498,61.2087 342.366,60.8245 342.103,60.5067C 341.841,60.1889 341.499,60.03 341.079,60.03C 340.599,60.03 340.222,60.2202 339.948,60.6006C 339.674,60.9811 339.537,61.5173 339.537,62.2094C 339.537,62.8022 339.667,63.2716 339.927,63.6176C 340.188,63.9637 340.544,64.1367 340.997,64.1367C 341.444,64.1367 341.806,63.9614 342.083,63.6107C 342.359,63.2601 342.498,62.7976 342.498,62.2231 Z "/>
		<path fill="#FFFFFF" fill-opacity="1" stroke-linejoin="round" d="M 353.617,65.75L 351.417,65.75L 351.417,61.625C 351.417,60.5617 351.029,60.03 350.255,60.03C 349.858,60.03 349.536,60.179 349.291,60.4769C 349.046,60.7748 348.923,61.1529 348.923,61.6113L 348.923,65.75L 346.723,65.75L 346.723,54.8967L 348.923,54.8967L 348.923,59.5648L 348.951,59.5648C 349.495,58.7016 350.233,58.27 351.167,58.27C 352.8,58.27 353.617,59.2684 353.617,61.2652L 353.617,65.75 Z "/>
		<path fill="#FFFFFF" fill-opacity="1" stroke-linejoin="round" d="M 359.777,65.6033C 359.45,65.7989 358.958,65.8967 358.301,65.8967C 356.743,65.8967 355.963,65.0648 355.963,63.4011L 355.963,60.03L 354.79,60.03L 354.79,58.4167L 355.963,58.4167L 355.963,56.8538L 358.163,56.2167L 358.163,58.4167L 359.777,58.4167L 359.777,60.03L 358.163,60.03L 358.163,62.9909C 358.163,63.7547 358.461,64.1367 359.055,64.1367C 359.289,64.1367 359.529,64.0878 359.777,63.99L 359.777,65.6033 Z "/>
		<path fill="#FFFFFF" fill-opacity="1" stroke-linejoin="round" d="M 362.245,65.8967C 361.875,65.8967 361.567,65.7829 361.32,65.5552C 361.073,65.3276 360.95,65.048 360.95,64.7165C 360.95,64.3743 361.077,64.0943 361.33,63.8766C 361.584,63.6589 361.901,63.55 362.281,63.55C 362.665,63.55 362.979,63.6604 363.223,63.8812C 363.468,64.1019 363.59,64.3804 363.59,64.7165C 363.59,65.0618 363.466,65.3448 363.216,65.5655C 362.967,65.7863 362.644,65.8967 362.245,65.8967 Z "/>
		<path fill="#FFFFFF" fill-opacity="1" stroke-linejoin="round" d="M 376.362,57.39L 372.745,57.39L 372.216,59.8834L 375.546,59.8834L 375.131,61.79L 371.808,61.79L 370.969,65.75L 368.634,65.75L 370.818,55.4833L 376.763,55.4833L 376.362,57.39 Z "/>
		<path fill="#FFFFFF" fill-opacity="1" stroke-linejoin="round" d="M 383.903,61.3317C 383.903,61.6678 383.87,62.0131 383.803,62.3675C 383.735,62.722 383.63,63.0684 383.487,63.4068C 383.345,63.7452 383.16,64.066 382.933,64.3693C 382.706,64.6726 382.431,64.9365 382.109,65.1611C 381.787,65.3856 381.414,65.5644 380.992,65.6973C 380.569,65.8302 380.089,65.8967 379.549,65.8967C 379.004,65.8967 378.529,65.8184 378.126,65.6618C 377.723,65.5052 377.39,65.2898 377.127,65.0155C 376.864,64.7413 376.669,64.4159 376.54,64.0393C 376.412,63.6627 376.348,63.2567 376.348,62.8213C 376.348,62.4714 376.383,62.1154 376.454,61.7533C 376.525,61.3913 376.636,61.0422 376.787,60.7061C 376.937,60.3699 377.13,60.0541 377.364,59.7585C 377.599,59.4628 377.878,59.2046 378.203,58.9839C 378.528,58.7631 378.898,58.5889 379.315,58.4614C 379.733,58.3338 380.202,58.27 380.723,58.27C 381.233,58.27 381.685,58.3422 382.079,58.4866C 382.473,58.631 382.805,58.8368 383.075,59.1042C 383.345,59.3715 383.55,59.6935 383.691,60.0701C 383.833,60.4467 383.903,60.8672 383.903,61.3317 Z M 381.619,61.3729C 381.619,61.1789 381.595,60.9994 381.546,60.8344C 381.498,60.6694 381.428,60.5277 381.334,60.4093C 381.241,60.2909 381.128,60.1981 380.994,60.1309C 380.86,60.0636 380.706,60.03 380.53,60.03C 380.229,60.03 379.96,60.1137 379.723,60.281C 379.487,60.4482 379.287,60.664 379.125,60.9284C 378.963,61.1926 378.839,61.4894 378.753,61.8187C 378.667,62.1479 378.623,62.4775 378.623,62.8075C 378.623,63.2292 378.725,63.5561 378.928,63.7884C 379.131,64.0206 379.396,64.1367 379.721,64.1367C 380.031,64.1367 380.304,64.0553 380.54,63.8926C 380.776,63.7299 380.974,63.5175 381.134,63.2555C 381.294,62.9935 381.414,62.6979 381.496,62.3687C 381.578,62.0394 381.619,61.7075 381.619,61.3729 Z "/>
		<path fill="#FFFFFF" fill-opacity="1" stroke-linejoin="round" d="M 390.368,60.5296L 390.354,60.5296C 390.254,60.4777 390.126,60.4303 389.971,60.3875C 389.815,60.3447 389.671,60.3233 389.536,60.3233C 389.255,60.3233 389.002,60.3864 388.778,60.5124C 388.553,60.6385 388.355,60.808 388.183,61.0212C 388.011,61.2343 387.867,61.4845 387.75,61.7717C 387.633,62.0589 387.539,62.3645 387.467,62.6883L 386.823,65.75L 384.531,65.75L 385.535,61.0727C 385.582,60.8481 385.629,60.6167 385.674,60.3783C 385.719,60.14 385.762,59.9051 385.802,59.6737C 385.843,59.4422 385.878,59.2191 385.91,59.0045C 385.941,58.7898 385.966,58.5939 385.984,58.4167L 388.228,58.4167C 388.213,58.5557 388.196,58.6989 388.18,58.8464C 388.163,58.9938 388.146,59.1355 388.129,59.2715C 388.112,59.4074 388.096,59.5304 388.08,59.6404C 388.064,59.7504 388.051,59.8368 388.04,59.8994L 388.07,59.8994C 388.366,59.3494 388.678,58.9403 389.005,58.6722C 389.332,58.4041 389.71,58.27 390.139,58.27C 390.263,58.27 390.384,58.2819 390.503,58.3055C 390.623,58.3292 390.73,58.3487 390.827,58.364L 390.368,60.5296 Z "/>
		<path fill="#FFFFFF" fill-opacity="1" stroke-linejoin="round" d="M 402.322,57.39L 398.705,57.39L 398.176,59.8834L 401.506,59.8834L 401.091,61.79L 397.768,61.79L 396.929,65.75L 394.594,65.75L 396.778,55.4833L 402.723,55.4833L 402.322,57.39 Z "/>
		<path fill="#FFFFFF" fill-opacity="1" stroke-linejoin="round" d="M 407.822,60.5296L 407.808,60.5296C 407.707,60.4777 407.579,60.4303 407.424,60.3875C 407.269,60.3447 407.124,60.3233 406.99,60.3233C 406.709,60.3233 406.456,60.3864 406.231,60.5124C 406.007,60.6385 405.808,60.808 405.636,61.0212C 405.465,61.2343 405.32,61.4845 405.203,61.7717C 405.086,62.0589 404.992,62.3645 404.92,62.6883L 404.276,65.75L 401.985,65.75L 402.988,61.0727C 403.036,60.8481 403.082,60.6167 403.127,60.3783C 403.172,60.14 403.215,59.9051 403.255,59.6737C 403.296,59.4422 403.332,59.2191 403.363,59.0045C 403.394,58.7898 403.419,58.5939 403.438,58.4167L 405.681,58.4167C 405.666,58.5557 405.65,58.6989 405.633,58.8464C 405.616,58.9938 405.599,59.1355 405.583,59.2715C 405.566,59.4074 405.549,59.5304 405.533,59.6404C 405.517,59.7504 405.504,59.8368 405.493,59.8994L 405.523,59.8994C 405.819,59.3494 406.131,58.9403 406.458,58.6722C 406.785,58.4041 407.163,58.27 407.592,58.27C 407.716,58.27 407.838,58.2819 407.957,58.3055C 408.076,58.3292 408.184,58.3487 408.28,58.364L 407.822,60.5296 Z "/>
		<path fill="#FFFFFF" fill-opacity="1" stroke-linejoin="round" d="M 414.896,60.2798C 414.896,60.645 414.816,60.9807 414.656,61.287C 414.497,61.5933 414.229,61.8576 413.854,62.0799C 413.479,62.3022 412.982,62.4771 412.361,62.6047C 411.741,62.7323 410.968,62.8029 410.026,62.9679C 410.026,63.1238 410.05,63.28 410.098,63.4366C 410.146,63.5932 410.229,63.7345 410.346,63.8605C 410.463,63.9866 410.617,64.0886 410.808,64.1665C 410.999,64.2444 411.238,64.2833 411.525,64.2833C 411.696,64.2833 411.883,64.2658 412.086,64.2306C 412.289,64.1955 412.496,64.1436 412.706,64.0748C 412.916,64.0061 413.125,63.9239 413.333,63.8285C 413.541,63.733 413.732,63.6279 413.908,63.5133L 413.558,65.2711C 413.409,65.3505 413.24,65.4273 413.049,65.5014C 412.858,65.5755 412.652,65.6423 412.43,65.7019C 412.209,65.7615 411.972,65.8088 411.721,65.844C 411.469,65.8791 411.213,65.8967 410.952,65.8967C 410.397,65.8967 409.922,65.8161 409.525,65.6549C 409.129,65.4937 408.803,65.2772 408.548,65.0052C 408.293,64.7333 408.106,64.4151 407.987,64.0507C 407.867,63.6864 407.808,63.2979 407.808,62.8854C 407.808,62.2652 407.912,61.6758 408.119,61.1174C 408.327,60.559 408.623,60.069 409.007,59.6473C 409.392,59.2256 409.855,58.8907 410.396,58.6424C 410.938,58.3941 411.543,58.27 412.212,58.27C 412.694,58.27 413.104,58.3258 413.443,58.4373C 413.782,58.5488 414.059,58.6982 414.274,58.8853C 414.488,59.0725 414.646,59.2868 414.746,59.5281C 414.846,59.7695 414.896,60.0201 414.896,60.2798 Z M 412.742,60.4333C 412.742,60.276 412.676,60.145 412.545,60.0403C 412.413,59.9357 412.228,59.8834 411.99,59.8834C 411.779,59.8834 411.577,59.9238 411.384,60.0048C 411.191,60.0858 411.014,60.1977 410.855,60.3405C 410.695,60.4834 410.558,60.6541 410.443,60.8527C 410.329,61.0513 410.242,61.266 410.184,61.4967C 411.044,61.5059 411.686,61.4184 412.108,61.2343C 412.531,61.0502 412.742,60.7832 412.742,60.4333 Z "/>
		<path fill="#FFFFFF" fill-opacity="1" stroke-linejoin="round" d="M 422.523,60.2798C 422.523,60.645 422.443,60.9807 422.283,61.287C 422.123,61.5933 421.856,61.8576 421.481,62.0799C 421.106,62.3022 420.608,62.4771 419.988,62.6047C 419.368,62.7323 418.595,62.8029 417.653,62.9679C 417.653,63.1238 417.677,63.28 417.725,63.4366C 417.773,63.5932 417.856,63.7345 417.972,63.8605C 418.089,63.9866 418.243,64.0886 418.434,64.1665C 418.625,64.2444 418.864,64.2833 419.151,64.2833C 419.323,64.2833 419.51,64.2658 419.713,64.2306C 419.916,64.1955 420.123,64.1436 420.333,64.0748C 420.543,64.0061 420.752,63.9239 420.96,63.8285C 421.167,63.733 421.359,63.6279 421.535,63.5133L 421.184,65.2711C 421.036,65.3505 420.866,65.4273 420.675,65.5014C 420.484,65.5755 420.278,65.6423 420.057,65.7019C 419.835,65.7615 419.599,65.8088 419.347,65.844C 419.096,65.8791 418.84,65.8967 418.579,65.8967C 418.024,65.8967 417.548,65.8161 417.152,65.6549C 416.756,65.4937 416.43,65.2772 416.175,65.0052C 415.919,64.7333 415.732,64.4151 415.613,64.0507C 415.494,63.6864 415.434,63.2979 415.434,62.8854C 415.434,62.2652 415.538,61.6758 415.746,61.1174C 415.954,60.559 416.25,60.069 416.634,59.6473C 417.018,59.2256 417.481,58.8907 418.023,58.6424C 418.564,58.3941 419.17,58.27 419.839,58.27C 420.32,58.27 420.73,58.3258 421.07,58.4373C 421.409,58.5488 421.686,58.6982 421.9,58.8853C 422.115,59.0725 422.272,59.2868 422.372,59.5281C 422.473,59.7695 422.523,60.0201 422.523,60.2798 Z M 420.368,60.4333C 420.368,60.276 420.303,60.145 420.171,60.0403C 420.04,59.9357 419.855,59.8834 419.617,59.8834C 419.406,59.8834 419.204,59.9238 419.011,60.0048C 418.817,60.0858 418.641,60.1977 418.481,60.3405C 418.322,60.4834 418.184,60.6541 418.07,60.8527C 417.955,61.0513 417.869,61.266 417.811,61.4967C 418.671,61.5059 419.312,61.4184 419.735,61.2343C 420.157,61.0502 420.368,60.7832 420.368,60.4333 Z "/>
		<path fill="#FFFFFF" fill-opacity="1" stroke-linejoin="round" d="M 425.367,64.6798C 425.367,64.8616 425.331,65.0278 425.259,65.1782C 425.187,65.3287 425.09,65.4575 424.969,65.5644C 424.847,65.6713 424.704,65.7535 424.539,65.8107C 424.374,65.868 424.196,65.8967 424.005,65.8967C 423.819,65.8967 423.648,65.8692 423.493,65.8142C 423.338,65.7592 423.203,65.6816 423.089,65.5816C 422.974,65.4815 422.885,65.3635 422.82,65.2275C 422.756,65.0915 422.724,64.9426 422.724,64.7806C 422.724,64.5988 422.76,64.4319 422.832,64.2799C 422.904,64.1279 423.002,63.998 423.125,63.8903C 423.249,63.7826 423.395,63.699 423.562,63.6394C 423.729,63.5798 423.911,63.55 424.106,63.55C 424.288,63.55 424.456,63.5787 424.611,63.6359C 424.766,63.6932 424.9,63.7719 425.012,63.872C 425.125,63.9721 425.212,64.0912 425.274,64.2295C 425.336,64.3678 425.367,64.5179 425.367,64.6798 Z "/>
	</g>
</svg>
