<?xml version="1.0" encoding="utf-8"?>
<!DOCTYPE svg PUBLIC "-//W3C//DTD SVG 1.1//EN" "http://www.w3.org/Graphics/SVG/1.1/DTD/svg11.dtd">
<svg xmlns="http://www.w3.org/2000/svg" xmlns:xlink="http://www.w3.org/1999/xlink" version="1.1" baseProfile="full" width="100" height="100" viewBox="0 0 100.00 100.00" enable-background="new 0 0 100.00 100.00" xml:space="preserve">
	<rect x="-7.62939e-006" y="1.14441e-005" fill="#FFFFFF" fill-opacity="1" stroke-width="0.2" stroke-linejoin="round" width="100" height="100"/>
	<g>
		<path fill="#21262D" fill-opacity="1" stroke-width="0.2" stroke-linejoin="round" d="M 30.6874,87.6244L 25.3541,87.6244L 25.3541,78.291L 15.6874,78.291L 15.6874,87.6244L 10.3541,87.6244L 10.3541,64.291L 15.6874,64.291L 15.6874,73.6244L 25.3541,73.6244L 25.3541,64.291L 30.6874,64.291L 30.6874,87.6244 Z "/>
		<path fill="#21262D" fill-opacity="1" stroke-width="0.2" stroke-linejoin="round" d="M 36.0208,87.6244L 36.0208,64.291L 44.552,64.291C 47.1666,64.291 49.1762,64.7667 50.5807,65.7181C 51.9852,66.6695 52.6874,68.0098 52.6874,69.739C 52.6874,70.9924 52.2604,72.0888 51.4062,73.028C 50.552,73.9673 49.46,74.6209 48.1301,74.989L 48.1301,75.0567C 49.8176,75.2615 51.1657,75.8752 52.1744,76.8978C 53.1831,77.9204 53.6874,79.166 53.6874,80.6348C 53.6874,82.7806 52.9166,84.482 51.3749,85.739C 49.8333,86.9959 47.7274,87.6244 45.0572,87.6244L 36.0208,87.6244 Z M 41.3541,68.291L 41.3541,73.6244L 43.6093,73.6244C 44.6684,73.6244 45.5017,73.3709 46.1093,72.864C 46.717,72.357 47.0208,71.6591 47.0208,70.7702C 47.0208,69.1174 45.7725,68.291 43.276,68.291L 41.3541,68.291 Z M 41.3541,77.6244L 41.3541,83.6244L 44.1718,83.6244C 45.3732,83.6244 46.315,83.3492 46.9973,82.7989C 47.6796,82.2485 48.0208,81.4977 48.0208,80.5463C 48.0208,79.6365 47.6857,78.9221 47.0156,78.403C 46.3454,77.8839 45.4079,77.6244 44.2031,77.6244L 41.3541,77.6244 Z "/>
		<path fill="#21262D" fill-opacity="1" stroke-width="0.2" stroke-linejoin="round" d="M 76.3541,77.4785C 76.3541,84.4647 73.0833,87.9577 66.5416,87.9577C 60.1944,87.9577 57.0208,84.5463 57.0208,77.7233L 57.0208,64.291L 62.3541,64.291L 62.3541,77.6869C 62.3541,81.423 63.8124,83.291 66.7291,83.291C 69.5902,83.291 71.0208,81.4872 71.0208,77.8796L 71.0208,64.291L 76.3541,64.291L 76.3541,77.4785 Z "/>
	</g>
</svg>
